<?xml version="1.0" standalone="no"?>
<!DOCTYPE svg PUBLIC "-//W3C//DTD SVG 20010904//EN"
 "http://www.w3.org/TR/2001/REC-SVG-20010904/DTD/svg10.dtd">
<svg version="1.0" xmlns="http://www.w3.org/2000/svg"
 width="250.000000pt" height="250.000000pt" viewBox="0 0 250.000000 250.000000"
 preserveAspectRatio="xMidYMid meet">

<g transform="translate(0.000000,250.000000) scale(0.100000,-0.100000)"
fill="#000000" stroke="none">
<path d="M1447 1793 c-4 -3 -7 -59 -7 -122 0 -140 9 -161 70 -161 53 0 72 29
68 102 -2 39 -7 53 -18 53 -11 0 -16 -16 -20 -60 -4 -49 -8 -60 -24 -63 -31
-6 -46 26 -46 99 0 66 1 68 28 71 16 2 27 9 27 18 0 9 -11 16 -27 18 -22 3
-28 9 -28 28 0 23 -10 31 -23 17z"/>
<path d="M425 1725 c-22 -21 -25 -33 -25 -92 0 -92 14 -117 67 -121 58 -4 73
19 73 119 0 72 -2 79 -26 98 -35 27 -59 26 -89 -4z m80 -38 c4 -13 5 -47 3
-77 -3 -56 -21 -79 -52 -67 -13 5 -16 21 -16 80 0 41 3 77 7 80 16 17 53 6 58
-16z"/>
<path d="M564 1735 c-10 -26 3 -148 20 -189 18 -44 56 -50 81 -12 20 30 41
194 27 208 -20 20 -29 -2 -35 -80 -2 -44 -11 -90 -18 -103 l-12 -24 -13 30
c-7 17 -15 63 -19 102 -7 72 -19 99 -31 68z"/>
<path d="M739 1731 c-18 -14 -23 -31 -27 -79 -7 -102 13 -142 72 -142 37 0 66
25 66 58 0 29 -23 28 -35 0 -7 -15 -19 -23 -35 -23 -25 0 -25 1 -25 80 l0 80
30 0 c40 0 48 -36 10 -53 -14 -6 -25 -18 -25 -27 0 -19 13 -19 50 0 24 12 30
22 30 48 0 38 -7 50 -37 66 -30 16 -47 14 -74 -8z"/>
<path d="M897 1730 c-26 -21 -27 -25 -27 -121 0 -81 3 -99 15 -99 12 0 15 16
15 88 0 98 7 115 41 110 23 -3 24 -7 29 -98 4 -79 8 -95 22 -98 15 -3 18 8 20
95 3 95 4 98 27 101 34 5 41 -12 41 -110 0 -72 3 -88 15 -88 12 0 15 18 15 99
0 96 -1 100 -27 121 -19 15 -35 20 -53 15 -14 -3 -32 -6 -40 -6 -8 0 -26 3
-40 6 -18 5 -34 0 -53 -15z"/>
<path d="M1156 1729 c-24 -19 -26 -26 -26 -103 0 -93 13 -116 66 -116 38 0 63
18 66 49 4 33 -20 38 -32 7 -10 -28 -38 -34 -58 -14 -14 14 -16 126 -3 146 13
22 55 11 59 -15 2 -16 -4 -26 -22 -35 -14 -6 -26 -15 -26 -19 0 -18 21 -18 54
-2 29 13 36 22 36 45 0 33 -39 78 -68 78 -11 0 -31 -9 -46 -21z"/>
<path d="M1309 1731 c-22 -18 -24 -26 -24 -117 0 -85 2 -99 17 -102 15 -3 18
8 20 95 l3 98 30 0 30 0 3 -97 c2 -78 6 -98 17 -98 12 0 15 19 15 98 0 103 -3
113 -37 131 -30 16 -47 14 -74 -8z"/>
<path d="M1775 1725 c-23 -22 -25 -31 -25 -120 0 -86 2 -96 18 -93 14 3 18 18
22 98 5 95 5 95 33 98 24 3 27 0 27 -27 0 -24 -5 -32 -25 -37 -32 -8 -32 -22
0 -34 22 -8 24 -15 27 -77 3 -56 6 -68 21 -71 19 -4 19 -1 7 168 -1 8 2 27 5
42 6 21 1 32 -18 52 -33 33 -61 33 -92 1z"/>
<path d="M1950 1743 c-31 -11 -40 -37 -40 -118 0 -67 3 -85 18 -98 40 -37 112
-10 112 41 0 29 -28 28 -32 0 -2 -17 -11 -24 -30 -26 -33 -4 -41 17 -36 103 3
59 3 60 33 60 40 0 48 -36 10 -53 -14 -6 -25 -18 -25 -27 0 -19 13 -19 50 0
26 13 30 21 30 55 0 54 -39 81 -90 63z"/>
<path d="M2085 1725 c-23 -22 -25 -31 -25 -120 0 -86 2 -96 18 -93 14 3 18 18
22 98 5 91 6 95 29 98 34 5 41 -12 41 -110 0 -72 3 -88 15 -88 12 0 15 18 15
99 0 96 -1 100 -26 120 -35 27 -59 26 -89 -4z"/>
<path d="M2252 1734 c-33 -23 -27 -33 21 -31 l42 2 0 -80 c0 -73 -2 -80 -21
-83 -46 -7 -58 69 -14 83 25 8 27 35 3 35 -36 0 -63 -38 -63 -88 0 -44 29 -64
86 -60 l49 3 0 98 c0 92 -2 100 -24 118 -28 23 -49 24 -79 3z"/>
<path d="M251 1724 c0 -11 3 -14 6 -6 3 7 2 16 -1 19 -3 4 -6 -2 -5 -13z"/>
<path d="M254 1610 c0 -52 1 -74 3 -47 2 26 2 68 0 95 -2 26 -3 4 -3 -48z"/>
<path d="M1668 1613 c6 -2 18 -2 25 0 6 3 1 5 -13 5 -14 0 -19 -2 -12 -5z"/>
<path d="M240 1386 c-88 -23 -149 -78 -188 -170 -19 -44 -26 -144 -13 -209 32
-171 84 -274 161 -314 41 -22 52 -23 277 -23 149 0 233 4 233 10 0 6 -77 10
-211 10 -238 0 -272 6 -325 58 -43 42 -69 98 -96 212 -48 202 12 352 158 396
34 10 105 14 261 14 183 0 213 2 213 15 0 13 -30 15 -212 14 -135 0 -230 -5
-258 -13z"/>
<path d="M890 1385 c0 -13 45 -15 345 -15 300 0 345 2 345 15 0 13 -45 15
-345 15 -300 0 -345 -2 -345 -15z"/>
<path d="M1790 1386 c0 -13 14 -16 81 -16 l81 0 -7 -47 c-4 -27 -16 -58 -27
-70 -26 -28 -21 -69 9 -66 12 1 42 -6 66 -17 45 -20 45 -21 49 -75 1 -31 -1
-68 -5 -83 -7 -21 -25 -167 -40 -304 -1 -16 -14 -18 -104 -18 -62 0 -103 -4
-103 -10 0 -13 449 -14 483 -1 105 40 189 223 190 411 1 73 -3 93 -27 142 -31
65 -100 132 -155 150 -22 7 -125 13 -263 15 -202 4 -228 3 -228 -11z m424
-108 c5 -73 3 -96 -9 -115 l-16 -23 -40 20 c-36 19 -40 24 -34 49 8 37 -14 57
-45 41 -16 -9 -21 -18 -17 -36 4 -23 2 -25 -31 -22 -19 2 -38 10 -42 18 -4 8
-12 25 -18 37 -9 17 -9 36 -1 73 l11 50 117 0 118 0 7 -92z m85 63 c75 -39
126 -118 137 -216 8 -62 -16 -193 -50 -277 -51 -125 -107 -158 -269 -158 -95
0 -99 1 -84 18 33 37 87 216 91 307 1 17 6 47 10 69 l9 38 49 -6 49 -7 -6 83
c-3 46 -8 102 -11 126 -5 38 -3 42 16 42 11 0 38 -9 59 -19z m-339 -105 c0 -7
-10 -16 -22 -19 -27 -7 -30 -5 -22 17 7 19 44 22 44 2z m270 -82 c0 -8 -5 -12
-10 -9 -6 4 -8 11 -5 16 9 14 15 11 15 -7z"/>
<path d="M1504 1331 c-2 -2 -4 -17 -4 -32 l0 -27 -172 -1 c-95 -1 -205 -4
-245 -7 l-72 -7 -6 37 c-7 33 -10 36 -37 34 -17 -1 -32 -7 -33 -13 -2 -5 -6
-22 -9 -37 -5 -24 -11 -28 -41 -28 -18 0 -36 -4 -39 -8 -2 -4 11 -6 31 -4 38
5 53 -7 53 -45 0 -18 5 -21 33 -19 28 2 33 7 41 39 9 36 11 37 53 37 l43 0 49
-102 c26 -57 53 -124 59 -150 11 -42 10 -50 -10 -85 -18 -29 -23 -55 -24 -108
-2 -130 16 -115 -144 -115 -87 0 -140 -4 -140 -10 0 -6 122 -10 345 -10 223 0
345 4 345 10 0 6 -69 10 -188 10 -213 0 -196 -8 -186 88 6 55 32 92 65 92 24
0 59 -61 67 -117 5 -35 12 -49 26 -51 15 -3 17 1 13 25 -3 15 -9 57 -13 93 -3
36 -15 82 -26 103 -27 54 -16 129 33 232 22 44 39 86 39 93 0 9 13 12 43 10
40 -3 42 -5 47 -38 5 -32 7 -35 35 -31 34 4 45 15 45 50 0 22 3 23 43 18 28
-4 36 -3 22 3 -11 5 -30 9 -42 9 -17 1 -23 7 -23 24 0 34 -13 47 -44 45 -15
-1 -29 -4 -32 -7z m-120 -80 c4 -5 -9 -29 -27 -53 -18 -23 -37 -52 -42 -63 -7
-17 -10 -14 -14 20 -6 37 -9 40 -36 40 -29 0 -30 -2 -29 -42 1 -54 -14 -48
-66 25 -55 76 -48 82 96 82 62 0 115 -4 118 -9z"/>
<path d="M401 1279 c-38 -38 -43 -68 -8 -44 22 14 37 12 37 -7 0 -4 -5 -8 -11
-8 -22 0 -99 -55 -99 -70 0 -9 15 -30 34 -48 31 -29 34 -36 29 -74 -3 -24 -12
-58 -19 -76 -11 -27 -18 -32 -33 -27 -11 3 -37 2 -57 -4 -26 -7 -41 -7 -55 2
-25 15 -38 1 -46 -49 l-6 -39 32 28 c30 25 38 27 101 23 66 -4 69 -3 101 30
l33 34 28 -27 c15 -15 28 -33 28 -41 0 -23 64 -152 76 -152 14 0 54 43 54 58
0 7 -10 9 -29 6 -27 -6 -29 -3 -45 42 -9 26 -16 53 -16 60 0 7 -14 37 -32 66
-32 54 -34 66 -23 126 5 28 8 32 21 21 13 -10 20 -7 46 18 17 17 27 36 24 42
-11 17 -26 13 -26 -8 0 -31 -27 -33 -39 -3 -6 15 -16 35 -23 46 -10 15 -10 19
0 23 15 6 16 55 0 71 -20 20 -45 14 -77 -19z m-5 -177 c-4 -4 -17 4 -28 18
-19 23 -19 25 -1 38 16 12 19 10 27 -18 5 -17 6 -34 2 -38z"/>
<path d="M938 603 c6 -2 12 -20 12 -39 0 -19 5 -34 10 -34 6 0 10 15 10 34 0
19 6 37 13 39 6 3 -4 5 -23 5 -19 0 -29 -2 -22 -5z"/>
<path d="M1010 570 c0 -38 20 -60 20 -22 1 16 1 16 14 0 19 -25 22 -23 23 22
2 38 0 40 -28 40 -27 0 -29 -2 -29 -40z m40 20 c0 -5 -4 -10 -10 -10 -5 0 -10
5 -10 10 0 6 5 10 10 10 6 0 10 -4 10 -10z"/>
<path d="M1090 570 c0 -38 2 -40 30 -40 17 0 30 5 30 10 0 6 -10 10 -22 10
-19 0 -20 2 -8 11 11 8 12 12 3 16 -20 8 -15 21 10 26 16 3 13 5 -10 6 -32 1
-33 0 -33 -39z"/>
<path d="M1170 570 c0 -22 5 -40 10 -40 6 0 10 6 10 14 0 8 6 17 13 20 10 5
10 7 0 12 -20 9 -15 22 10 27 16 3 13 5 -10 6 -32 1 -33 0 -33 -39z"/>
<path d="M1251 579 c-15 -44 -15 -45 24 -45 19 0 35 3 35 7 0 21 -24 69 -35
69 -7 0 -18 -14 -24 -31z"/>
<path d="M1440 570 c0 -38 13 -54 23 -27 4 9 8 9 15 -1 5 -8 21 -12 38 -9 27
4 28 5 7 12 -24 8 -30 29 -12 41 8 4 7 9 -2 15 -21 13 -29 11 -29 -10 0 -11
-4 -23 -10 -26 -6 -4 -10 5 -10 19 0 14 -4 26 -10 26 -5 0 -10 -18 -10 -40z"/>
<path d="M1560 591 c5 -11 10 -29 10 -40 0 -33 16 -24 28 16 12 38 7 58 -7 34
-6 -9 -11 -10 -15 -2 -13 20 -27 12 -16 -8z"/>
</g>
</svg>
